<svg width="16" height="17" viewBox="0 0 16 17" fill="none" xmlns="http://www.w3.org/2000/svg">
<path d="M2.10468 7.83331C1.50903 8.74448 1.24511 9.83289 1.35726 10.9157C1.46941 11.9985 1.9508 13.0097 2.72055 13.7794C3.4903 14.5492 4.50151 15.0306 5.58431 15.1427C6.66711 15.2549 7.75551 14.991 8.66668 14.3953M9.33335 12.5C10.7478 12.5 12.1044 11.9381 13.1046 10.9379C14.1048 9.93769 14.6667 8.58113 14.6667 7.16665C14.6667 5.75216 14.1048 4.3956 13.1046 3.39541C12.1044 2.39522 10.7478 1.83331 9.33335 1.83331C7.91886 1.83331 6.56231 2.39522 5.56211 3.39541C4.56192 4.3956 4.00002 5.75216 4.00002 7.16665C4.00002 8.58113 4.56192 9.93769 5.56211 10.9379C6.56231 11.9381 7.91886 12.5 9.33335 12.5Z" stroke="white" stroke-width="1.25" stroke-linecap="round" stroke-linejoin="round"/>
<path d="M9.33333 5.16667C8.59667 5.16667 8 5.61467 8 6.16667C8 6.71867 8.59667 7.16667 9.33333 7.16667C10.07 7.16667 10.6667 7.61467 10.6667 8.16667C10.6667 8.71867 10.07 9.16667 9.33333 9.16667M9.33333 5.16667C9.91333 5.16667 10.408 5.44467 10.5907 5.83333M9.33333 5.16667V4.5M9.33333 9.16667C8.75333 9.16667 8.25867 8.88867 8.076 8.5M9.33333 9.16667V9.83333" stroke="white" stroke-width="1.25" stroke-linecap="round" stroke-linejoin="round"/>
</svg>
