<svg width="15" height="16" viewBox="0 0 15 16" fill="none" xmlns="http://www.w3.org/2000/svg">
<g clip-path="url(#clip0_9013_4210)">
<path d="M9.21261 14.1742C8.96278 14.7407 8.79764 15.3554 8.73438 16L14.0212 14.8508C14.271 14.2845 14.436 13.6697 14.4994 13.025L9.21261 14.1742Z" fill="#222222"/>
<path d="M14.0218 11.4079C14.2716 10.8416 14.4367 10.2268 14.5 9.58212L10.3817 10.4778V8.75601L14.0216 7.96504C14.2715 7.39872 14.4366 6.78388 14.4999 6.13924L10.3816 7.03412V0.842159C9.75056 1.20447 9.19013 1.68674 8.73456 2.25561V7.39223L7.08752 7.7502V0C6.45648 0.362181 5.89605 0.844578 5.44049 1.41345V8.10806L1.75524 8.90883C1.50541 9.47515 1.34014 10.09 1.27675 10.7346L5.44049 9.82981V11.9981L0.978232 12.9677C0.728406 13.534 0.563266 14.1489 0.5 14.7935L5.17073 13.7785C5.55095 13.6977 5.87775 13.4678 6.09021 13.1515L6.9468 11.8529V11.8526C7.03572 11.7183 7.08752 11.5563 7.08752 11.3818V9.47184L8.73456 9.11386V12.5574L14.0216 11.4077L14.0218 11.4079Z" fill="#222222"/>
</g>
<defs>
<clipPath id="clip0_9013_4210">
<rect width="14" height="16" fill="white" transform="translate(0.5)"/>
</clipPath>
</defs>
</svg>
