<svg width="24" height="24" viewBox="0 0 24 24" fill="none" xmlns="http://www.w3.org/2000/svg">
<path d="M11.9995 1.75C12.1514 1.75018 12.2996 1.79644 12.4246 1.88269C12.5496 1.96893 12.6455 2.09109 12.6995 2.233L15.0585 8.413L21.5365 8.729C21.6858 8.73627 21.8294 8.78795 21.9491 8.8774C22.0687 8.96686 22.159 9.09002 22.2082 9.23109C22.2574 9.37216 22.2633 9.52472 22.2253 9.6692C22.1872 9.81367 22.1069 9.94349 21.9945 10.042L17.0645 14.37L18.8765 21.31C18.9152 21.4579 18.9077 21.6142 18.8551 21.7577C18.8024 21.9013 18.7072 22.0254 18.5821 22.1133C18.4569 22.2012 18.3079 22.2487 18.155 22.2496C18.0021 22.2504 17.8526 22.2045 17.7265 22.118L11.9995 18.188L6.27252 22.118C6.14651 22.2044 5.99713 22.2502 5.84436 22.2494C5.69159 22.2485 5.54272 22.2011 5.41767 22.1133C5.29261 22.0255 5.19734 21.9017 5.1446 21.7583C5.09185 21.6149 5.08415 21.4589 5.12252 21.311L6.93452 14.37L2.00452 10.042C1.89219 9.94349 1.81184 9.81367 1.77377 9.6692C1.73571 9.52472 1.74166 9.37216 1.79087 9.23109C1.84008 9.09002 1.9303 8.96686 2.04997 8.8774C2.16963 8.78795 2.31329 8.73627 2.46252 8.729L8.94052 8.412L11.2985 2.232C11.3528 2.09012 11.4489 1.96806 11.5741 1.88199C11.6992 1.79592 11.8476 1.7499 11.9995 1.75Z" fill="#FFBE0A"/>
</svg>
