<svg width="56" height="56" viewBox="0 0 56 56" fill="none" xmlns="http://www.w3.org/2000/svg">
<g clip-path="url(#clip0_9012_5304)">
<path d="M56 41.789C56 42.0959 55.9904 42.7575 55.9712 43.2753C55.9233 44.5315 55.8274 46.1521 55.674 46.8904C55.4438 48.0027 55.1082 49.0479 54.6575 49.9205C54.1301 50.9562 53.4589 51.8767 52.6534 52.6726C51.8575 53.4685 50.937 54.1397 49.9014 54.6671C49.0288 55.1178 47.974 55.4534 46.8521 55.6836C46.1233 55.8274 44.5123 55.9329 43.2658 55.9712C42.7479 55.9904 42.0863 56 41.7795 56H14.2014C13.8945 56 13.2329 55.9904 12.7151 55.9712C11.4589 55.9233 9.83836 55.8274 9.1 55.674C7.98767 55.4438 6.94247 55.1082 6.06986 54.6575C5.03425 54.1301 4.1137 53.4589 3.31781 52.6534C2.52192 51.8575 1.85068 50.937 1.32329 49.9014C0.872603 49.0288 0.536986 47.974 0.306849 46.8521C0.163014 46.1233 0.0575342 44.5123 0.0191781 43.2658C0.00958904 42.7575 0 42.0959 0 41.789V14.211C0 13.9041 0.00958904 13.2425 0.0287671 12.7247C0.0767123 11.4685 0.172603 9.84795 0.326027 9.10959C0.556164 7.99726 0.891781 6.95205 1.34247 6.07945C1.86986 5.04384 2.5411 4.12329 3.33699 3.3274C4.13288 2.53151 5.05342 1.86027 6.08904 1.33288C6.96164 0.882192 8.01644 0.546575 9.13836 0.316438C9.86712 0.172603 11.4781 0.0671233 12.7247 0.0287671C13.2425 0.00958904 13.9041 0 14.211 0H41.789C42.0959 0 42.7575 0.00958904 43.2753 0.0287671C44.5315 0.0767123 46.1521 0.172603 46.8904 0.326027C48.0027 0.556164 49.0479 0.891781 49.9205 1.34247C50.9562 1.86986 51.8767 2.5411 52.6726 3.34658C53.4685 4.14247 54.1397 5.06301 54.6671 6.09863C55.1178 6.97123 55.4534 8.02603 55.6836 9.14795C55.8274 9.87671 55.9329 11.4877 55.9712 12.7342C55.9904 13.2521 56 13.9137 56 14.2205V41.789Z" fill="url(#paint0_linear_9012_5304)"/>
<path fill-rule="evenodd" clip-rule="evenodd" d="M42.7286 13.4055C38.9601 9.63697 33.9451 7.55615 28.604 7.55615C17.5957 7.55615 8.64916 16.5123 8.63958 27.5109C8.63958 31.0301 9.56012 34.463 11.3053 37.4835L8.47656 47.8301L19.0629 45.0589C21.9779 46.6507 25.2574 47.4849 28.604 47.4849H28.6135C39.6122 47.4849 48.5683 38.5288 48.5779 27.5301C48.5779 22.189 46.4971 17.174 42.7286 13.4055ZM28.6135 44.1096C25.6314 44.1096 22.7067 43.3041 20.1656 41.7986L19.5615 41.4438L13.2807 43.0931L14.9588 36.9753L14.5656 36.352C12.9067 33.7151 12.0245 30.6562 12.0245 27.5205C12.0245 18.3726 19.4752 10.9315 28.6231 10.9315C33.0533 10.9315 37.2245 12.6575 40.3505 15.7931C43.4861 18.9288 45.2122 23.1 45.2026 27.5301C45.193 36.6685 37.7519 44.1096 28.6135 44.1096ZM37.7135 31.6918C37.2149 31.4425 34.7601 30.2342 34.3094 30.0712C33.8492 29.9082 33.5231 29.8219 33.1875 30.3205C32.8519 30.8192 31.9026 31.9411 31.6053 32.2767C31.3177 32.6123 31.0204 32.6507 30.5218 32.4014C30.0231 32.152 28.4122 31.6246 26.5135 29.9274C25.0272 28.6041 24.03 26.974 23.7423 26.4753C23.4546 25.9767 23.7135 25.7082 23.9629 25.4589C24.1834 25.2383 24.4615 24.874 24.7108 24.5863C24.9601 24.2986 25.0464 24.0877 25.2094 23.752C25.3725 23.4164 25.2957 23.1288 25.1711 22.8794C25.0464 22.6301 24.0492 20.1753 23.6368 19.1781C23.2341 18.2096 22.8218 18.3342 22.5149 18.3246C22.2272 18.3055 21.8916 18.3055 21.556 18.3055C21.2204 18.3055 20.6834 18.4301 20.2231 18.9288C19.7629 19.4274 18.4779 20.6356 18.4779 23.0904C18.4779 25.5452 20.2615 27.9137 20.5108 28.2493C20.7601 28.5849 24.03 33.6192 29.0355 35.7767C30.2245 36.2945 31.1546 36.6014 31.8834 36.8315C33.082 37.2151 34.1656 37.1575 35.0286 37.0329C35.9875 36.889 37.982 35.8246 38.3944 34.6644C38.8067 33.5041 38.8067 32.4972 38.682 32.2959C38.5382 32.0657 38.2122 31.9411 37.7135 31.6918Z" fill="white"/>
</g>
<defs>
<linearGradient id="paint0_linear_9012_5304" x1="28.0021" y1="56.0043" x2="28.0021" y2="0" gradientUnits="userSpaceOnUse">
<stop stop-color="#25CF43"/>
<stop offset="1" stop-color="#61FD7D"/>
</linearGradient>
<clipPath id="clip0_9012_5304">
<rect width="56" height="56" rx="28" fill="white"/>
</clipPath>
</defs>
</svg>
